<svg version="1.0" id="katman_1" xmlns="http://www.w3.org/2000/svg" xmlns:xlink="http://www.w3.org/1999/xlink" x="0px" y="0px" style="enable-background:new 0 0 600 450;" xml:space="preserve" viewBox="41.2 186.8 506.6 77.7"> <style type="text/css"> 	.st0{fill:#ffffff;} .st1{fill:#ffffff;} .st2{fill:#888888;}</style> <path class="st1" d="M173.9,256.4h-14v-61.8h14v9.1c5.1-6.7,12.7-10.4,21.6-10.4c14.1,0,22.4,9.5,22.4,24.2v38.9h-14v-36.2 	c0-9.4-5-14.4-12.6-14.4c-10.5,0-17.3,9.4-17.3,23.5C173.9,229.4,173.9,256.4,173.9,256.4z M227,225.6c0-19.3,12.4-32.3,30.8-32.3 	s30.8,12.9,30.8,32.3c0,19.2-12.4,32.1-30.8,32.1S227,244.8,227,225.6z M274.3,225.6c0-11.9-6.8-19.9-16.5-19.9 	c-9.7,0-16.5,8-16.5,19.9c0,11.8,6.8,19.7,16.5,19.7C267.5,245.3,274.3,237.3,274.3,225.6L274.3,225.6z M312.4,256.4h-14v-61.8h14 	v9.1c4.4-6.8,10.9-10.4,18.3-10.4c8.2,0,15.4,4.3,18.8,12.2c5.1-8,13.1-12.2,21.5-12.2c11.9,0,20.2,8.4,20.2,22.8v40.4h-14v-37 	c0-9-3.9-13.7-11-13.7c-9.4,0-14.7,8.5-14.7,23.6v27.1h-14v-37c0-9.3-4.1-13.7-10.7-13.7c-9,0-14.4,8.7-14.4,23.6V256.4z M404,194.6 	h14v61.8h-14C404,256.4,404,194.6,404,194.6z M427.8,225.5c0-19.2,12.7-32.1,30.7-32.1c13.8,0,23.8,7.3,28,19.5l-13,5.4 	c-1.7-8.1-6.9-12.5-14.7-12.5c-10.1,0-16.7,7.8-16.7,19.7c0,12.1,6.6,19.8,16.8,19.8c7.7,0,12.8-4.4,14.6-12.5l12.9,5.4 	c-4.5,12.7-14.2,19.5-27.7,19.5C440.5,257.7,427.8,244.8,427.8,225.5z M494,240.2l12.7-5.8c0.9,6.8,7.9,11.6,16,11.6 	c6.2,0,11.1-2.9,11.1-6.8c0-10.5-37.2-6-37.2-27.2c0-11.6,10.2-18.3,24.2-18.3c13.8,0,24,6.6,26.5,15.3l-13.4,5.8 	c-0.4-5.1-5.8-9.4-13.5-9.4c-5.6,0-9.9,2.4-9.9,5.7c0,10,37.3,5.4,37.3,27.5c0,11.2-9.9,19.1-25.5,19.1 	C507,257.7,496.4,250.8,494,240.2z"></path> <g> 	<path class="st0" d="M58.6,186.8c-9.7,0.1-17.4,8-17.4,17.7v42.2c0,7.2,4.3,13.6,10.9,16.4s14.2,1.2,19.3-3.8l12-12 		c0.3,9.7,8.3,17.3,17.9,17.2c9.7-0.1,17.4-8,17.4-17.7v-42.2c0-7.2-4.3-13.6-10.9-16.4c-6.6-2.7-14.2-1.2-19.3,3.8l-12,12 		C76.2,194.3,68.3,186.6,58.6,186.8z"></path> 	<ellipse class="st2" cx="58.9" cy="246.6" rx="17.7" ry="17.7"></ellipse> </g> </svg>