<svg version="1.0" id="katman_1" xmlns="http://www.w3.org/2000/svg" xmlns:xlink="http://www.w3.org/1999/xlink" x="0px" y="0px" style="enable-background:new 0 0 2062.3 1509.3;" xml:space="preserve" viewBox="168 498.2 1713.38 537.7"> <style type="text/css"> 	.st0{fill:#ffffff;} 	.st1{fill-rule:evenodd;clip-rule:evenodd;fill:#888888;} </style> <path class="st0" d="M1411,707.6c-35.4,4.4-61.5,24.5-71.1,54.5c-6.6,20.4-5.8,39.8,2.5,59.5c9.8,23.3,30.9,39.9,58.9,46.2 	c8.1,1.9,29,2,37.4,0.4c32.5-6.4,55.2-26.6,64.6-57.2c2.2-7.3,2.5-9.5,2.5-22.5c0-13-0.3-15.2-2.5-22.5 	c-9.3-30.2-31.2-50.1-62.5-56.7C1434.3,708,1416.5,707,1411,707.6z M1430.8,747.3c11.7,3.1,22.8,10.7,27.9,19.6 	c7.9,13.4,7.6,31.1-0.6,43.9c-14.7,23.1-48.3,26.9-68.5,7.7c-16.8-16-17.4-41.4-1.4-58.7C1398.9,748.4,1415.9,743.5,1430.8,747.3z"></path> <path class="st0" d="M1584,707.6c-35.4,4.4-61.5,24.5-71.1,54.5c-6.6,20.4-5.8,39.8,2.5,59.5c9.8,23.3,30.9,39.9,58.9,46.2 	c8.1,1.9,29,2,37.4,0.4c32.5-6.4,55.2-26.6,64.6-57.2c2.2-7.3,2.5-9.5,2.5-22.5c0-13-0.3-15.2-2.5-22.5 	c-9.3-30.2-31.2-50.1-62.5-56.7C1607.3,708,1589.5,707,1584,707.6z M1603.9,747.3c11.8,3.1,22.8,10.7,27.9,19.6 	c7.9,13.4,7.6,31.1-0.6,43.9c-14.7,23.1-48.3,26.9-68.5,7.7c-16.8-16-17.4-41.4-1.4-58.7C1571.9,748.4,1588.9,743.5,1603.9,747.3z"></path> <path class="st0" d="M1817,708.1c-20.6,3-36.1,16.2-41.1,35.2c-4.8,17.9-1.4,36.2,8.2,45.1c5.7,5.3,12.5,8.4,31.2,14.4 	c18.1,5.8,22.2,8.3,24.1,14.4c2.1,7-3.1,15.4-11,17.6c-4.3,1.2-12.4,1.2-17.8-0.1c-5.9-1.4-16.5-6.6-21-10.5c-2-1.9-4.3-3.3-4.7-3.3 	s-2.7,3.4-4.9,7.6c-3.1,5.9-4.1,7.2-4.3,5.6l-0.3-2h-24.1h-24v-60.6v-60.6h-19.9h-19.9v77.7v77.7h43.9h43.9V862 	c0-2.3,0.2-4.2,0.4-4.2s3.8,1.7,8,3.6c13,6.1,21.3,7.9,37.4,7.9c15.7,0,23.1-1.4,32.8-6.1c7.7-3.7,18.1-14,21.6-21.2 	c6.9-14.4,7.9-33.8,2.1-46.1c-1-2.3-4.4-6.8-7.6-9.9c-6.8-6.8-14.1-10.5-32.8-16.5c-7.4-2.3-14.8-5.1-16.5-6.1 	c-6-3.7-7.2-11.8-2.5-16.9c8.2-8.8,22.8-8,38,2.1l3,1.9l8.1-15.5c4.3-8.4,7.9-15.5,7.7-15.6c-0.9-0.9-12.2-5.4-18.6-7.4 	C1842.9,707.8,1828.7,706.3,1817,708.1z"></path> <path class="st0" d="M699,766.5v102.4h36.2c19.9,0,40.7-0.6,46.1-1.2c44.7-5.5,77.7-32.6,88.3-72.4c3.5-13.2,4.3-36.4,1.8-50.2 	c-5.1-26.8-19-48.4-40.4-63c-9.6-6.6-18.2-10.2-32-14c-10.8-2.9-12.5-2.9-55.5-3.5l-44.4-0.5V766.5z M778,705.9 	c28.1,6,46.8,29.5,46.8,58.9c-0.1,19.5-6.1,36.3-17.3,47.4c-11.1,11.2-27.6,16.6-50.6,16.7H746v-62.3v-62.3h12.1 	C764.7,704.3,773.6,705.1,778,705.9z"></path> <path class="st0" d="M888.3,766.6v102.3l86.2-0.1h86.1l22.2-31.2c12.3-17,22.6-31,22.9-31c0.5,0,10.8,14,23,31.2l22.3,31.2h28 	c15.3,0,27.9-0.4,27.9-0.7c0-0.4-16.5-23.4-36.4-51.1l-36.4-50.4l34.8-48.6c19.2-26.6,35.9-49.5,37-50.8c2.2-2.2,2.2-1.9,2.2,18.6 	v20.8h21.2h21.2v81.1v81.1h25.3h25.3v-81.1v-81.1l24.7-0.2l24.6-0.4l-13.2-20.8l-13.2-20.8l-86.4-0.1h-86.5l-22.2,31.2 	c-12.3,17-22.6,31-22.9,31.2c-0.4,0-10.7-14-22.9-31.2l-22.3-31.2h-86.1h-86.2V766.6z M1040.4,715.4c19.8,27.4,36,50.4,36,51.1 	c0,0.7-16.2,23.9-36.1,51.5l-36.2,50.2l-0.4-19.6l-0.2-19.6h-34.1h-34.1V806v-22.9h27.6h27.6v-19.4v-19.4h-27.6h-27.6v-20v-20h34.1 	h34.1v-19.4c0-10.7,0.2-19.4,0.5-19.4C1004.3,665.5,1020.6,688,1040.4,715.4z"></path> <path class="st1" d="M342,528.5c-32,16.7-58.3,30.8-58.2,31.4c0,1.5,76.9,40.4,79.6,40.3c1.2,0,10.2-4.2,20-9.2l17.8-9.1l19.4,10 	l19.4,10l31.8-14.3c47.8-21.5,52.8-23.9,52-24.6c-1-1.1-18.2-10.3-64.8-34.8c-22.5-11.8-44.3-23.5-48.5-25.8 	c-4.2-2.4-8.2-4.2-8.9-4.2S374,511.8,342,528.5z M201.5,601.3l-33.4,17.2v75.6c0,41.6,0.4,75.6,1,75.6c0.5,0,16.9-7.1,36.5-15.8 	l35.5-15.8v-79.7l17.3,9.4c13.4,7.3,26.7,14.5,40.1,21.8l22.8,12.3l10.1-4.6c6.4-2.9,12.7-5.8,19-8.7c4.9-2.3,16.9-7.7,26.7-12 	c9.8-4.3,18.8-8.7,20.1-9.7c1.7-1.3-19.1-12.8-76.9-42.5c-43.6-22.4-80.7-40.6-82.4-40.5C236.2,584,219.8,591.8,201.5,601.3z 	 M529.7,606.1c-22.7,10.3-41.3,19.1-41.3,19.6c0,0.5,12.4,7.9,27.5,16.4c15.2,8.5,27.5,15.9,27.5,16.5c0,0.6-13.4,7.1-29.8,14.4 	c-16.4,7.4-57.8,26.1-92.1,41.6l-114.7,51.9c-28.9,13-54.9,24.8-57.8,26.1c-58.9,26.7-75.2,34.1-77.4,35.4c-2.2,1.3-2.7,8.7-3.1,46 	l-0.5,44.5l29.8,15.2l29.8,15.2l41.4-18.7c22.7-10.3,41.4-19.2,41.4-19.9c0-0.7-4.2-3.4-9.3-6.1c-5.1-2.7-15.7-8.7-23.6-13.3 	c-7.8-4.6-15.6-8.8-17.3-9.4c-1.7-0.6-3.1-1.5-3.1-2.2c0-0.6,18.2-9.3,40.5-19.2c43.2-19.3,76.2-34.2,147.1-66.3 	c31.7-14.3,63.4-28.7,95.2-43c27.9-12.6,60.3-27.3,72-32.7l21.3-9.8l0.5-45l0.5-45L604,602.9c-16.6-8.5-30.9-15.5-31.6-15.5 	C571.6,587.4,552.4,595.9,529.7,606.1z M625.2,768.5c-4.5,2.2-13.3,6.3-19.6,9.1c-6.3,2.8-18.3,8.2-26.6,12l-15.1,6.9l-0.3,39.5 	c-0.2,21.7-1,39.4-1.8,39.3c-1.8-0.3-30.1-14.8-58.6-30.1c-20.6-11-21.9-11.5-26.7-9.1c-2.8,1.4-19.5,8.9-37.1,16.6 	c-17.6,7.8-32.6,14.6-33.3,15.3c-0.7,0.6,34.7,19.8,78.8,42.7l80,41.6l34.2-17.7c18.8-9.7,34.8-18.6,35.5-19.7 	c1.7-2.5,1.5-150.7-0.1-150.5C633.8,764.5,629.6,766.3,625.2,768.5z M435.8,942.4c-5.9,2.5-11.9,5.1-17.8,7.7 	c-17.9,7.7-14.4,8-35.7-2.6c-14.2-7.1-20.3-9.2-23-8.2c-2,0.8-19.1,8.5-38.1,17.1c-18.9,8.6-35.1,15.7-35.9,15.7 	c-8,0,5.3,7.9,56.3,33.6l59.8,30.2l25.2-12.4c13.8-6.8,41.8-20.5,62-30.4c20.3-9.9,36.6-18.2,36.3-18.6c-0.3-0.3-17.3-9-37.8-19.4 	l-37.2-18.8L435.8,942.4z"></path> </svg>